# xmcd
#
# Track frame offsets:
#	150
#	12033
#	26055
#	40013
#	52935
#	66045
#	79375
#	92330
#	106175
#	120580
#	133235
#	146103
#	160288
#	174963
#
# Disc length: 2508 seconds
#
# Revision: 1
# Processed by: cddbd v1.4PL0 Copyright (c) Steve Scherf et al.
# Submitted via: audiograbber 1.81.02
#
DISCID=ae09ca0e
DTITLE=Various Artist - Alabama Blues 1927-1931
DYEAR=1900
DGENRE=
TTITLE0=Barefoot Bill - Snigglin' Blues
TTITLE1=Clifford Gibson - Don't Put that thing on me
TTITLE2=Jay Bird Coleman - Coffee Grinder Blues
TTITLE3=Edward Thompson - Seven Sister Blues
TTITLE4=Ed Bell - Mean Conductor Blues
TTITLE5=Clifford Gibson - Tired of Being Mistreated part 2
TTITLE6=Edward Thompson - Florida Bound
TTITLE7=Clifford Gibson - Keep your Windows Pinned
TTITLE8=Edward Thompson - West Virginia Blues
TTITLE9=Clifford Gibson - Whiskey Moan Blues
TTITLE10=Edward Thompson - Showers of Rain Blues
TTITLE11=Marshall Owens - Try Me One More Time
TTITLE12=Marshall Owens - Texas Blues
TTITLE13=George 'Bullet' Williams - The Escaped Convict
EXTD=
EXTT0=
EXTT1=
EXTT2=
EXTT3=
EXTT4=
EXTT5=
EXTT6=
EXTT7=
EXTT8=
EXTT9=
EXTT10=
EXTT11=
EXTT12=
EXTT13=
PLAYORDER=
